<svg xmlns="http://www.w3.org/2000/svg" version="1.1" viewBox="0 0 701.9 195.6">
 <style type="text/css">.st0{fill:#003E54;}
	.st1{fill:#40816D;}
	.st2{fill:#BE4227;}
	.st3{fill:#919191;}
	.st4{fill:#A6A6A6;}
	.st5{fill:#656565;}
	.st6{fill:#5F5F5F;}
	.st7{fill:#B1B1B1;}
	.st8{fill:#848484;}
	.st9{fill:#C4C4C4;}
	.st10{fill:none;}
	.st11{fill:#F0B32B;}
	.st12{fill:#FFFFFF;}</style>
 <g transform="translate(-21.9,-23.9)">
  <path class="st0" d="m716.6 107.1c-.1.4-.2.7-.2 1.1-.2 1.8.3 3.5.9 5.2.1.4.2.8.2 1.3 0 1.6.1 3.2-.2 4.8-.3 1.9-.3 3.8-.4 5.7-.1 1.5-.2 3.1-.4 4.6-.1 1.1-.5 2.2-.7 3.3 0 .2.1.6.2.8.8.8.9 1.4.1 2.2-.7.8-1.1 1.6-1.1 2.7 0 .2-.1.5-.3.7-.8.7-1.6 1.3-2.5 1.9s-1.8 1.2-2.8 1.7c-.6.3-1.3.5-2 .7-1 .2-2 .5-2.9.6-1 .1-2 .2-3 .1-1.1-.1-1.9-1.3-1.6-2.4.2-.5.7-.8 1.1-1.2.4-.3.9-.5 1.3-.9.2-.2.4-.5.5-.8.1-.8.6-1.4 1.1-1.5.5-.6.8-1 1.1-1.3.1-.2.4-.3.4-.5-.1-1.2.7-2 .9-3.1v-.1c0-.8.4-1.2 1.1-1.5.2-.1.3-.6.3-.9v-5.4c0-.4.2-.8.3-1.2.1-1.2-.5-2.3-.9-3.4-.5-1.4-1.2-2.8-1.2-4.4 0-1-.1-2.1-.3-3.1s-.5-2-.7-3c-.2-1.3-.3-2.7-.5-4-.1-1.1-.3-2.1-.4-3.4-.2.3-.3.5-.3.6-.5 1.5-.9 2.9-1.4 4.4-.4 1.2-.9 2.4-1.8 3.4-.2.2-.4.6-.1 1.1.4.7.6 1.5.1 2.3-.1.2-.1.5-.1.7 0 1.7.1 3.4.1 5 0 2.1-.1 4.1-.1 6.2 0 1 .2 1.9.3 2.9 0 .1.1.2.2.3.7.5.7.7.1 1.3-.2.2-.3.4-.3.7 0 .8-.1 1.6 0 2.4.1 1-.3 1.5-1.2 1.8-.1.1-.2.2-.3.2-1.1 0-2.1.1-3.2 0s-2 .4-2.8.9c-1.3.8-2.7 1.5-4.3 1.6-.9.1-1.8.4-2.7.1-.8-.2-1.7-.4-2.3-1.1-.2-.2-.3-.8-.1-1.1.5-.6 1-1.3 1.7-1.7.8-.5 1.8-.7 2.4-1.5.1-.1.4-.2.6-.2.4-.1.7-.3.9-.8.1-.5.9-.8 1.2-1.1.3-.5.7-1 .9-1.5.1-.3.1-.7.1-1 .1-.6-.1-1.2-.6-1.7-.4-.3-.5-1-.5-1.5-.1-.7-.1-1.5.4-2.1.6-.6.3-1.3.2-2l-.3-1.5c-.1-.4-.2-.9-.3-1.3-.1-.6-.2-1.3-.2-1.9 0-1 0-2 .2-2.9.1-.4.4-.7.3-1.2-.1-.4-.3-.8-.5-1.2v-.3c0-1.2.2-2.3 0-3.5-.6-3.7 0-7.4-.2-11.1 0-.8-.2-1.5-.6-2.3-.5-.9-.5-1.7 0-2.7.3-.5.4-1.1.5-1.6.2-1.3.3-2.6.4-3.9.1-.4.3-.7.4-1-.5-.3-1.1-.5-1.3-.8s.3-.8 1.1-1.1c.1-1 .1-2 .2-2.9.1-.5.4-.9.6-1.4.2-.4.4-.9.5-1.3.3-1.3.5-2.7.8-4.1.1-.5.3-.9.4-1.4.6-1.4 1.3-2.9 1.8-4.3.2-.7.1-1.5.2-2.3v-.8c0-.5-.1-.7-.6-.7s-1-.4-1-1c0-1.2-.2-2.5 0-3.7.5-2.7.3-5.4.4-8.1 0-.8.3-1.5 1-1.9l2.1-1.5.4-.4c.2-.3.3-.7.6-.9.4-.5 1-.8 1.4-1.3.2-.2.1-.7 0-.9-.5-.9-1.2-1.7-1.7-2.6-.3-.7-.4-1.6-.6-2.4-.1-.4 0-.8 0-1.2 0-.1-.1-.4-.2-.4-.7-.2-.7-.8-.7-1.4v-.8c-.2-.1-.6-.1-.6-.1v-1c0-.1.2-.3.1-.3-.4-.5-.2-.8.1-1.2 0 0-.1-.3-.2-.5-.1-.3-1-.5-.3-.9-.1-.6-.2-1-.2-1.5.2 0 .4-.1.6-.1l-.1-.1.3-.6c.1-.3.3-.7.5-1 0-.1.1-.2.1-.2.7.3 1.4-.8 2.2 0 .1.1.3 0 .4.1-.2-.3-.3-.6-.5-.9l.2-.2c.3.1.7.1 1 .2.2-.4.6-.4 1.2 0 0-.3 0-.6.1-.9 1.1-.2 2.1.1 3 1 0-.4 0-.7-.1-1l.2-.2c.2.2.5.3.6.5.2.4.3.3.6.1l.3-.3c.2-.1.4-.1.5 0s.1.3.1.5c-.2.9 0 1.1.9 1.1.6 0 .7.1.6.7.4.3 1.3-.3 1.4.6.1.7-.6.4-1.1.6l.8.4c.3.1.6.2.9.4.4.2.4.6 0 .8s-.3.4-.1.7.4.5.6.7c.4.4.5.7 0 1.1.5.7.5.8-.3 1v2.1c0 .5.2 1-.3 1.3-.1.1 0 .3-.1.5-.2.4-.3.8-.6 1.1-.6.5-.6 1.1.1 1.5s1.1.9.9 1.7c-.1.6.3 1 .7 1.2 1.6.7 3.2 1.3 4.8 2 .6.3 1.1.6 1.7 1 .1.1.2.2.3.2 1.4 0 2.1 1 2.8 2s.9 2.2 1.2 3.4l.9 4.2c.2.9.4 1.8.6 2.8.2.7.3 1.5.5 2.2.1.6.2 1.2.3 1.9-.8 0-.9.4-.9 1 .1 1.1.1 2.2.1 3.2 0 .5.2 1 .2 1.4.1 1-.2 1.9-.6 2.7-1 1.9-2 3.8-3.1 5.6-.9 1.4-1.9 2.8-3.1 4-1 1.1-1.1 2.2-.9 3.6.2.8.3 1.6.3 2.4 0 .6.2 1.1.5 1.7.7 1.2.8 1.1-.2 2.2-.5.5-.6.9-.5 1.7.2 1.3-.1 2.7-.1 4 0 .9-.1 1.8.2 2.7.3 1.4.8 2.8.6 4.2-.1.8 0 1.6 0 2.4.4 0 .4.4.3.7z"/>
  <path class="st1" d="m520.3 92.4c0 .6 0 1.1.1 1.7.1.3.2.7.4 1 .6.8.6 1.6.4 2.5-.4 1.4-1.2 2.5-2.1 3.5-.1.1-.2.4-.1.6.1.5 0 1-.3 1.4-.6.6-1.2 1.2-1.8 1.7.8 1.7 1.6 3.3.9 5.3s-2.2 3-4.1 3.7c.8 2.4 1.5 4.7 2.3 7.1-.3.3-.7.6-1.1 1-.3.3-.4.4-.1.9.4.6.7 1.4.9 2.1.2.6.3 1.2.4 1.9.2.9 0 1.2-.7 1.8-.6.5-1.1 1-1.5 1.6-.5.7-1.1 1.2-1.9 1.4-.5.1-.7.3-.7.9 0 .9-.2 1.7-.3 2.6-.1.5-.2 1 .2 1.5.2.2.1.7.1 1-.1.5-.3 1-.3 1.5 0 .2 0 .6.1.7.6.6 0 1.1-.3 1.4-1 1.1-2.3 1.7-3.7 2.3-.4.2-.9.1-1.3 0-.8-.2-1.5-.4-2-1-.5-.5-.2-1 .2-1.4l2.1-1.8c.2-.1.3-.4.3-.7v-1.6c0-.1 0-.3.1-.4.8-.8.2-1.7.2-2.5 0-.9-.1-1.8-.1-2.7 0 0 0-.1-.1-.1-.9-.2-1.8 0-2.5.6-.9.6-1.7 1.2-2.9 1.1-.1 0-.3.1-.4.2-.1.9-.4 1.8-.1 2.6s.2 1.5.3 2.3v.3l-.3.9c0 2.3-1.8 3.1-3.4 4-.7.4-1.7.7-2.7.5-.7-.2-1.4-.4-2-.7s-.5-.8-.2-1.3c.1-.1.2-.2.3-.2.1-.1.2-.2.3-.2l.4-.4c.2-.2.3-.4.5-.5l.4-.4c.1-.1.3-.2.4-.4 0 0 .1 0 .1-.1.1-.1.3-.2.4-.3.7-.4.9-1 .9-1.8 0-1.6.2-3.2.3-4.8 0-.2-.2-.4-.3-.5-.4-.4-1-.6-1.2-1-.6-.8-.7-1.8-.5-2.8.3-1.2.7-2.4 1-3.6-.2-.1-.4-.1-.6-.2-.7-.3-1.1-.7-1-1.5.2-1.5.4-2.9.6-4.4.1-.4.1-.9.1-1.4-.1-1.1.1-2.1.5-3 .4-1.1.9-2.1 1.3-3.1.2-.4.2-.8-.3-1-.4-.2-.4-.5-.3-.9.3-.9.7-1.8 1.1-2.7.1-.3.1-.6.2-.9v-.4-.3c.4-1.1.4-2.1.1-3.2 0-.1-.1-.2-.2-.4-.6.7-1.1 1.3-1.7 1.9-1.4 1.4-3.2 2.4-5.1 3.2-.3.1-.6.3-.7.5-.5 1-1.5 1.2-2.4 1.1-1-.1-1.5.6-2.3 1-1 .5-2.5.3-3.1-.6-.6-.8-.9-1.7-1.5-2.7h-1.3c-.1 0-.4.2-.4.3 0 .6.1 1.2.1 1.8 0 .1.1.1.1.2.1.4.2.9.3 1.3 0 .8.1 1.6.1 2.3l.1.1c.3.6.6 1.2.5 1.9 0 .2.1.4.2.5.9.2 1.3.9 1.8 1.5.4.5.7 1 1 1.5s-.2.7-.5 1c-.5.5-1.1.9-1.6 1.3-.1.1-.3.4-.2.6.3.8.7 1.6 1 2.4.3.9.6 1.7 1 2.6.2.5.5.9.4 1.4-.4 1.3.3 2.3.7 3.4.2.7 0 1.3-.5 1.8-.4.4-.8.8-1.1 1.2-.2.2-.3.5-.3.8v1.2c0 .5-.2 1.1.5 1.3.1 0 .3.3.2.4-.3 1.1.8 1.5 1.2 2.1s.8 1.1 1.1 1.7c.2.5-.4 1.3-1.1 1.5-.3.1-.7.2-1 .3-.8.4-1.5-.2-2.1-.4-.4-.2-.7-.5-1.1-.8-.4-.4-.8-.8-1.1-1.2-.4-.5-.8-1.1-1-1.7-.1-.4-.1-1 .1-1.3.4-.6.2-1-.2-1.4-.3-.4-.5-.5-1.1-.2-1 .4-2.1.7-3.1.9-.8.2-1.6.1-2.5.2-.1 0-.4.1-.4.2-.1.5-.2 1-.1 1.5.1.6.3 1.1-.1 1.7-.1.2-.1.6 0 .8.7 1.6.2 2.9-1.3 3.6-.9.5-3-.3-3.3-1.2-.2-.8-.2-1.6 0-2.4 0-.2 0-.5-.2-.6-.6-.6-.7-1.5-.1-2.2.3-.3.3-.6.1-.9-.1-.1-.2-.3-.2-.4.1-.8-.4-.9-1-1-.9-.2-1.6-.7-2-1.5-.2-.4-.1-1.1.1-1.7.1-.4.2-.7-.1-1-.5-.6-.5-1.4-.4-2.1.1-.8.2-1.6.2-2.4 0-.3-.2-.7-.4-1-.3-.8 0-1.5.2-2.2.4-.9.8-1.7 1.2-2.5 0-.1.1-.1.1-.2-.6-1.2.3-2.1.6-3.1.2-.7.6-1.3.8-2 .1-.2-.1-.5-.2-.7-.1-.1-.4-.1-.5 0-.6.4-1.2.4-1.7.1-1-.6-2.1-1.2-2.2-2.5 0-.7.2-1.4.4-2.1.3-.8.9-1.4 1.3-2.1 0-.1.1-.2.1-.2.2-1 .4-2 .7-3.1.1.1 0 0 0 0-1-.6-1-.9-.1-1.6.3-.2.6-.3.9-.5.4-.2.9-.4 1.1-.8.6-.9 1.4-.9 2.3-.7.7.1 1.2-.2 1.3-.9-1.1.2-1.9-.3-2.5-1.1-.4-.6-.7-1.4-.9-2.2-.2-1.3-.2-2.5-.3-3.8-.1-1.9.8-3.5 2.3-4.5 1.3-.8 2.7-1.6 4.4-1.4.2 0 .5-.2.7-.3.1-.1.2-.3.3-.2.6 0 1-.5 1.5-.7.3-.1.9.3 1.2.6.4.5.6 1.1.8 1.6.1.2.3.3.4.4.9.9 1.3 1.9 1.3 3.2v1.8c.1 1.2.2 2.4.3 3.7.1.9-.4 1.6-1.3 2.2.6.2 1.2.4 1.7.4 1.1 0 2 .4 3 .7.4.1 1 .1 1.4 0 1.2-.4 2.7.1 3.4 1.2.1.1.2.3.3.4.2.3.4.7.7.7.6.1 1.2.1 1.7-.5.5-.7 1.1-1.3 1.7-1.8.4-.4.5-.8.5-1.3 0-1.3.3-2.5 1.2-3.5s1.4-2.2 2-3.4.5-2.4.5-3.6v-2c.1-1.5.1-3 .5-4.5.4-1.6 1-3.2 2-4.6.9-1.3 2.1-2.2 3.8-2.4.4 0 .8-.3 1.1-.4.9-.1 1.9-.1 2.8 0 .6.1 1.1.5 1.6.9 1.6 1.4 2.7 3.1 3.5 5 .5 1.3 1.1 2.6 1.5 4 .4 1.5 1.4 2.5 2.5 3.3.7.5 1.3 1 1.5 1.9 0 .1.3.2.3.2.5-.1 1-.2 1.4-.5 1.4-1.1 2.9-.4 3.5 1 .5.8.6 1 .7 1.3z"/>
  <path class="st2" d="m578.9 139.6c-.5-.2-1.1-.3-1.6-.5-.6-.2-.9-.8-.8-1.4.1-.7.4-1.2 1.1-1.6.9-.5 1.9-1 2.7-1.6.3-.2.6-.6.8-1 .2-.3.4-.7.6-1.1-.3-.1-.5-.3-.8-.4-.4-.2-.7-.4-.6-.9.2-.5.9-.8 1.4-.6.5.3 1.1.6 1.7 1 .3-1.9.5-3.8.8-5.6v-.4-.5c.1-.5.2-1 .3-1.6 0-1.1.4-2.1.7-3.1.2-.8.2-1.6.2-2.4-.8-.1-1.5-.2-2.1-.2-.9-.1-1.9-1.1-1.8-1.9 0-.8-.1-1.6 0-2.4.2-1.3.5-2.5.7-3.8.1-.4-.1-.8.1-1.2.5-1.4.3-2.8.4-4.2 0-.7.2-1.3.3-1.9l-.1-.1c-1.2-.1-1.6-.5-1.6-1.7 0-.4-.2-.9-.2-1.3-.3-1.3-.4-2.6-.8-3.9-.4-1.4-.2-2.9-.2-4.3 0-.3.1-.6.2-.9 0-.3-.1-.6-.1-.9s0-.6.1-.9c.1-.4.3-.8.4-1.3.5-1.3 1-2.6 1.4-3.9l.3-1.2c.2-.4.4-.8.7-1.2.2-.3.5-.5.3-1 0-.1.1-.3.2-.4.5-.2.6-.6.6-1.1.1-.9.3-1.7 1-2.4.8-.7.7-.7 0-1.5-.3-.3-.4-.6-.1-.9.4-.5.6-1 .6-1.7-.1-1.2.5-2.2.9-3.3.3-.9.7-1.8 1.1-2.7.7-1.7 1.8-3.1 3.3-4.1.4-.3 1.1-.1 1.7-.1h1.4c.6 0 1.1 0 1.7.1h.3c2.5.2 4 1.7 5.1 3.7.9 1.6 1.5 3.4 1.3 5.2-.1 1.2.3 2.1.7 3 .2.4.7.8 1 1.2.5.8.9 1.6 1.3 2.4.2.4.3.8.4 1.3v.3c-.6.7-.4 1.3-.1 2 .1.2 0 .4-.1.6v.4c.1.3.7.5.1.9-.3.2-.6.3-1 .5.1 1 .2 2.1.3 3.2 0 .2.3.5.5.7.4.5.4 1 .1 1.5-.7 1-1.1 2.1-1.4 3.3-.2 1-.6 2-1 3-.3.8-.7 1.6-.8 2.4s.2 1.6.3 2.3.3 1.3.4 2c.2 1.5.4 3.1.7 4.6.3 1.3.7 2.5 1.1 3.8.2 1 .3 1.9.6 2.9.5 1.6.1 3.3.2 4.9 0 .4-.3.7-.7.7h-1.7c.3.8.5 1.6.7 2.3.3 1.3.8 2.5 1 3.8.2 1.2.2 2.5.2 3.7 0 1.3-.1 2.6-.2 3.9-.1.7-.2 1.4-.4 2.3h1.3c.5 0 .8.2.8.6s-.1.8-.6.9c-.1 0-.2 0-.3.1.1.2.2.3.3.5.1.3.2.7.1.9-.4 1-.4 2-.1 3.1.3.9.5 1.8-.1 2.7-.2.2-.6.4-.9.4h-5c-.6 0-1.2-.5-1.3-1.1 0-.6.1-1.2.1-1.7 0-.6.1-1.2.1-1.9.1-.6.1-1.3.2-1.9-.2-.1-.4-.2-.7-.3-.7-.2-.9-.7-.6-1.3.2-.4.6-.7 1-1 .1-.1.2 0 .3 0 1.1 0 1.1-.1 1.2-1.2 0-1.3-.3-2.6-.9-3.8-.5-1-.8-2.1-1.2-3.2-.2-.6-.4-1.3-.4-1.9 0-1.4-.7-2.6-1.5-3.7-.4-.6-.7-1.3-1.1-2.1-.8-.1-1.7-.2-2.4-.3-.5.8-.9 1.5-1.2 2.2-.3.6-.6 1.2-.6 1.8 0 2.4-.8 4.5-1.8 6.7-.4.8-.7 1.7-1 2.5-.2.4-.1.7.2.9.5.4.6.9.6 1.5 0 .9.2 1.8.2 2.7 0 .3-.1.8-.3.9-.6.4-1.2.8-1.8.8-1.5-.1-2.8.5-4 1.3-.4.3-1 .4-1.5.5-.8.1-1.6 0-2.4 0-.3-.4-.4-.4-.5-.4z"/>
  <path class="st3" d="m660.9 79c-.7-.3-1.1-.7-1.1-1.5 0-.4-.4-.8-.6-1.2.3.4.7.7.8 1.1.1.6.2 1.1.7 1.4.2 0 .2.2.2.2z"/>
  <path class="st4" d="m659.2 71.8c.1-.5.2-1 .2-1.6s-.2-1.2-.2-1.8c.2.2.4.4.4.6.1.7 0 1.5 0 2.2 0 .3-.2.4-.4.6z"/>
  <path class="st5" d="m644.8 69.2c.1.2.4.4.4.7 0 .8-.1 1.7-.1 2.5-.1-.2-.2-.5-.2-.7 0-.9 0-1.7-.1-2.5z"/>
  <path class="st3" d="m648.9 61.9c-.8.6-1.7 1.2-2.5 1.8.6-.9 1.5-1.5 2.5-1.8z"/>
  <path class="st1" d="m496.8 101.9c.3 1.1.3 2.1-.1 3.2 0-1.1.1-2.2.1-3.2z"/>
  <path class="st3" d="m658 65.2-1.5-2.1c.6.7 1.1 1.4 1.5 2.1z"/>
  <path class="st6" d="m652 61.5h-1.7c.5-.1 1-.2 1.5-.2.1 0 .2.1.3.1-.1 0-.1.1-.1.1z"/>
  <path class="st2" d="m584.4 123.3c-.1.5-.2 1-.3 1.6.2-.5.2-1 .3-1.6z"/>
  <path class="st1" d="m478.8 109.5c-.1-.4-.2-.9-.3-1.3.2.4.2.8.3 1.3z"/>
  <path class="st3" d="m656.6 63.1c-.3-.2-.6-.4-.9-.7.3.3.6.5.9.7z"/>
  <path class="st0" d="m716.6 107.1c0-.4.1-.7.1-1.1 0 .4 0 .8-.1 1.1z"/>
  <path class="st7" d="m644.4 67.7c.1.3.2.6.2.9 0-.3-.1-.6-.2-.9z"/>
  <path class="st7" d="m644.7 66.3c-.1.3-.2.5-.2.8 0-.2.1-.5.2-.8z"/>
  <path class="st1" d="m500.4 139.2.3-.9-.3.9z"/>
  <path class="st8" d="m520.3 92.4c-.1-.2-.2-.4-.3-.7.1.2.2.4.3.7z"/>
  <path class="st1" d="m494.9 139.2c-.1.1-.3.2-.4.3.1 0 .3-.2.4-.3z"/>
  <path class="st1" d="m494.4 139.6c-.1.1-.3.2-.4.4l.4-.4z"/>
  <path class="st2" d="m584.2 125.4v.4-.4z"/>
  <path class="st1" d="m496.7 105.3v.4-.4z"/>
  <path class="st0" d="m690.6 110.4v.3-.3z"/>
  <path class="st1" d="m492.4 141.6c-.1.1-.2.2-.3.2.1-.1.2-.2.3-.2z"/>
  <path class="st1" d="m492.7 141.3c-.1.1-.2.2-.3.2.1 0 .2-.1.3-.2z"/>
  <path class="st9" d="m652 61.4c-.1 0-.2-.1-.3-.1.2 0 .2 0 .3.1z"/>
  <path class="st9" d="m650.1 61.5c-.1 0-.2.1-.3.1.1 0 .2 0 .3-.1z"/>
  <path class="st2" d="m578.9 139.6h.3-.3z"/>
  <path class="st0" d="m699.6 135.5c.1-.1.2-.2.3-.2-.1 0-.2.1-.3.2z"/>
  <path class="st1" d="m493.9 140.1-.3.3.3-.3z"/>
  <path class="st1" d="m493.1 140.9-.3.3.3-.3z"/>
  <path class="st1" d="m479.1 112-.1-.1z"/>
  <path class="st0" d="m550.1 124.1c0 .2.1.5.1.9 0-.2 0-.5-.1-.9z"/>
  <path class="st0" d="m566.7 106.7-.3-.6c-.1-2.2-.2-4.5-.3-6.7 0-1-.2-1.8-.6-2.7-1-2-1.7-4.1-2.3-6.3-.1-.6-.2-1.2-.4-1.7-.5-1.2-1.5-2.1-2.7-2.6-1.5-.6-2.9-1.4-4.4-2.1-.1-.1-.2-.3-.3-.5.2 0 .4-.1.6-.1.1 0 .3.1.4.1.8-.4 1.4-1.1 1.7-1.8.3-.9.9-1.8.7-2.9 0-.1.1-.3.2-.4.1-.3.2-.5.3-.8.1-.4 0-.9.1-1.3.3-.9.3-1.3-.4-2-.2-.2-.3-.5-.4-.8-.3-1-1.1-1.8-1.3-2.9l-.1-.1c-.9-.6-1.8-1.3-2.8-1.9-.3-.2-.8-.1-1.2-.1s-.9-.1-1.3-.1c-.2 0-.5-.2-.7-.1-.7.1-1.4.2-2.1.2s-1.2.1-1.6.7c-.1.1-.3.2-.4.3-.5.3-.9.5-1.4.8-.3.2-.6.5-.9.6-.9.4-1.2 1.2-1.3 2.1s-.3 1.9-.4 2.8c0 .1-.1.2-.1.2-.6 1-.5 1.4.3 2.2.4.4.3.7.2 1.1-.2.7-.5 1.3-.6 2-.1 1.3.4 2.5 1.1 3.6.1.2.2.3.4.5h-.7c-.9 0-1.7.3-2.4.7-1 .5-1.8 1.3-2.4 2.2-.4.7-.9 1.4-1.2 2.1-.4 1-.9 1.8-1.6 2.6-.7.9-1.5 1.8-2.3 2.7-.8.8-1.1 1.9-1.6 2.9-.3.6-.2 1.2-.5 1.8-.3.7-.3 1.4-1.1 1.8-.4.2-.8.7-.9 1.1-.1.5 0 1.2.1 1.7s.3.9.4 1.3c.1.9.9 1.8 1.9 1.8.6 0 1.1 0 1.6.5.3.3.8.6 1.2.6 1.2-.1 2.3-.3 3.3-1s1.4-1.6 1.5-2.8c.1-1 0-1.9-.8-2.6-.5-.4-.9-.9-1.4-1.3 2-2.2 3.2-4.7 4.6-7.3.2.3.3.6.4 1 .5 1.2.5 2.5.4 3.8-.1 1.5-.5 2.9-.5 4.4 0 .8-.4 1.6-.6 2.3 0 .1-.1.2-.2.3-.8.8-1.1 1.7-1.1 2.8-.1 1.5 0 3 0 4.4 0 .9-.3 1.7-.3 2.6-.1 1 0 2-.2 3-.4 1.8-.2 3.6.3 5.3.3 1 .3 2 .2 3-.1.8-.2 1.7-.3 2.5-.1.6-.3 1.2-.3 1.9-.1.6-.2 1.4 0 1.9s.8.9 1.2 1.3c.7.5 1.1 1.1 1 2-.1.8-.1 1.6-.1 2.5 0 .3.2.7.4.9.6.3 1 .9 1.5 1.3 1.4 1.2 2.9 2.1 4.9 1.3.8-.3 1.3-1.1 1.2-1.9 0-.2.1-.4.2-.6.2-.3.6-.6.7-1 .3-1.4.1-2.6-.6-3.9-.4-.7-.5-1.5-.7-2.2 0-.1 0-.2.1-.3v-.2-.5c.1-1.9.1-5.6.2-5.6 0-.5 0-.9.1-1 .1-.4.2-.7.3-1.3v.1c.1.3.1.7.1.9.1 2.2-.2 6.7-.5 7.3.3 1.3 1 2.3 1.9 3.1.6.5 1 1 .9 1.9v2.2c0 .3 0 .7.2.9.5.8 1.1 1.5 1.8 2.2.5.5 1.1.9 1.9.8h1c.8 0 1.7-.5 1.9-1.3.2-.5.3-1.1.3-1.7 0-.4-.2-.9-.2-1.3 0-1-.3-1.8-.7-2.7-.2-.4-.4-.9-.4-1.3 0-.7.4-1.3.5-2 .1-.9.1-1.8 0-2.7 0-.3-.1-.5.2-.6.2-.1.3-.2.5-.3 1.1-.8 1-2.1 1.1-3.1.3-2.8.2-5.7.3-8.5v-5.8c0-.2-.1-.5-.1-.7-.1-.9-.1-1.9-.4-2.8-.2-.7-.4-1.5-.7-2.2-.4-.8-.9-1.6-.3-2.6.2-.4.1-.9 0-1.4-.1-.7-.4-1.5-.6-2.2-.1-.3-.1-.6 0-.8.3-.8.6-1.5.9-2.3.3.5.7.9.8 1.4.2 1.4.3 2.8.8 4.2.3.7.6 1.4.9 2 .2.6.5 1.1.7 1.7.1.4.2.8 0 1.1-.3.7-.3 1.1.5 1.1v1.6c-.1 0-.2.1-.3.1-.5.2-.8.8-.5 1.2.7 1.1 2.7 1.2 3.6.2.5-.6.7-1.2 1-1.9 0-1.5-.2-2.4-.7-3.3z"/>
  <path class="st0" d="m549.7 126.3s-.1 3.7-.2 5.6c.1-1.1.2-4.1.2-5.6z"/>
  <path class="st0" d="m549.5 132.4v.2-.2z"/>
  <path class="st0" d="m549.5 132.4v-.5.5z"/>
  <path class="st0" d="m550 124v.1c.1 0 0 0 0-.1z"/>
  <path class="st10" d="m462.2 105.4c.1.1 0 .1 0 0z"/>
  <path class="st11" d="m441.3 124.1c-.1.1-.2.2-.2.4 0-.1.1-.2.2-.4s.3-.4.4-.7v-1.2 1.2c-.2.3-.3.5-.4.7z"/>
  <polygon class="st12" points=""/>
  <path class="st11" d="m426.5 100.3c.1.1.2.3.4.4v.9-.9c-.2-.1-.3-.2-.4-.4z"/>
  <path class="st11" d="m418.5 125.2.4.4-.3-.3z"/>
  <path class="st11" d="m426.9 101.7c0 .1.1.1.1.2.2 0 .4 0 .6-.1-.2 0-.4 0-.6.1 0-.1-.1-.2-.1-.2z"/>
  <path class="st11" d="m429.4 101.5c0 .1-.1.2-.1.3 0-.1 0-.2.1-.3z"/>
  <path class="st11" d="m434 99.2c.3.1.6.3.9.5-.2-.2-.5-.3-.9-.5z"/>
  <path class="st11" d="m434 99.2c-.1 0-.2-.1-.3-.1-.3-.1-.5-.3-.8-.4.3.1.5.3.8.4.1.1.2.1.3.1z"/>
  <path class="st11" d="m425 104.6c.1.2.1.5.2.7-.1-.2-.2-.5-.2-.7z"/>
  <path class="st11" d="m446.6 136c-.5-1.4-1-2.8-1.4-4.1-.1-.3-.1-.6-.3-.9-.6-1.1-1.4-1.8-2.6-2.2-.8-.1-1.6-.4-2.3-1 .2-.2.4-.3.5-.4 0-1 0-2 .4-2.9.1-.1.1-.3.2-.4 0-.2.1-.4.1-.7v-1.4c0-.2-.1-.3-.1-.5-.4-.8-.8-1.6-1.1-2.5-.1-.1 0-.3 0-.5v-.4c-.1-.3-.2-.6-.3-.8s-.2-.3-.3-.5c-.1-.1-.2-.2-.2-.3-.1-.2-.3-.3-.4-.5-.1-.1-.2-.2-.2-.3-.8-.4-1.6-.8-2.3-1.1-.1-.1-.2-.2-.3-.2v-.6c.1-.3.2-.5.3-.8v-.3c-.3-.8.3-1.4.7-2 .9-2 1-4 0-6-.4-.8-1.2-1.4-1.7-2.1-.4-.6-1-.9-1.7-1.1-.3-.1-.6-.3-.8-.5v-.2c.2 0 .5-.2.7-.1.7.2 1.5.3 2 1 .1.1.3 0 .5 0 0-.4.1-.8-.1-1.1-.2-.4-.6-.7-.9-1-.3-.2-.6-.3-.9-.5-.1 0-.2-.1-.3-.1-.3-.1-.5-.3-.8-.4h-1.2c-.3-.1-.6-.2-.9-.3s-.7-.1-1-.2c-1.5-.4-2.5.4-3.1 1.7.1.2.2.4.4.6v.2c.2.1.5.2.7.3v-.1c.2.1.4.3.6.4.2-.5.4-1 1.1-1-.1.3-.1.5-.2.7 0 .1.1.3.1.4.1 0 .3 0 .4-.1.4-.7 1-.6 1.6-.5 0 .6-.4.7-.7.9-.2.1-.5.2-.7.2h-.2c-.9.2-1.7.4-2.6.6-.1 0-.1.1-.2.1-.2.1-.3.3-.5.4-.1.1-.2.2-.3.2-.1.1-.3.4-.4.4-.5-.2-.9-.4-1.4-.6-.2-.4-.5-.8-.7-1.2-.1.4-.3.7-.4 1.1l-.6.3c-.9.3-1.4 1.4-1 2.2.3.4.6.8.8 1.1.1-.2.3-.3.3-.5 0-.6.3-1 .8-1.4 0 0 .1 0 .1-.1.4-.5.7-.4 1 0 .1.2.1.5.2.7v2.1c-.1.5-.2.9-.2 1.4-.1 1.3.4 2.4 1.4 3.2.1.1.2.3.2.4 0 .5-.6 1.1-1.1 1.1-.4 0-.9.1-1.3.2-.6.1-1.1.3-1.6.5l-.4.4.4-.4-.5.5c-.2.3-.5.5-.7.8 0 .1-.1.2-.1.4-.3.6-.6 1.1-.9 1.7-.1.2-.2.4-.3.7-.1.5-.3 1-.8 1.3-.7.4-1 1.1-1 1.9 0 .3-.1.6-.2.8s-.1.4-.1.6c.1.2.3.3.3.5.1.6.2 1.2.3 1.7l.4.4v.1c.1.1.2.2.2.3l1.7 1.7c.5.2.9.4 1.4.6.3.1.3.3.1.5-.1.1-.3.2-.4.3l-.3.6c-.2.5-.4 1.1-.6 1.6l-.6 1.2v.9c0 .1.1.3.1.4.1.6.3 1.1.4 1.7 0 .1 0 .2.1.4 0 .1.1.2.1.3.1.1.1.3.2.4l1.2 2.4c.6.9 1.1 1.7 1.7 2.6.1.2.5.4.7.3.6-.1 1.2-.3 1.8-.4 1-.3 2-.6 2.9-1.1.9-.4 1.7-.4 2.6 0 .3.1.7.6.8.9.1 1.1.8 1.8 1.6 2.3.3.2.9.1 1.4 0 .1 0 .1-.6.2-.9.1-.6.2-1.3.4-1.8.3-.9.7-1.6-.2-2.4-.1-.1-.1-.2-.2-.4.5.3.9.5 1.3.7s.7.4.6.9c0 .3.1.5.1.8 1.2.6 2.5 1 3.9 1 .5 0 1 .3 1.4.5.8.1 1.6.3 2.5.4.6 0 1.2-.1 1.4-.7.2-.5.1-1-.3-1.4-.1-.1-.1-.2-.1-.3.7-.5.7-.5.4-1.1.4-.1.7-.3.4-.8s-.8-1.1-1.1-1.8zm-9.3-.8c-.5.4-1 .9-1.5 1.3 0 .4 0 .9.1 1.4-.4.1-.5-.1-.5-.5.1-.6-.2-.9-.7-1.3-.6-.5-1.1-1-1.7-1.4-.3-.2-.7-.4-1-.6-.1-.2-.3-.3-.4-.5h.4.4c.2 0 .4.1.7.1s.5.1.8.1c.6.1 1.1.3 1.7.4.3.1.7.1 1 .2s.7.2 1.1.2c-.2.4-.3.5-.4.6z"/>
  <path class="st11" d="m438.3 140.3c.2.2.4.4.6.5 1.5.6 3.1.8 4.7.9-.5-.2-1-.5-1.4-.5-1.4.1-2.7-.2-3.9-.9z"/>
  <path class="st11" d="m430 101.9c.3-.1.5-.2.7-.2.4-.2.8-.3.7-.9-.6-.1-1.2-.2-1.6.5 0 .1-.2.1-.4.1l-.1.1c0 .1-.1.2-.1.3.3 0 .5 0 .8.1z"/>
  <path class="st11" d="m427.6 101.7h.3c.1-.1.3-.2.4-.4-.1.1-.3.2-.4.4h-.3z"/>
  <path class="st11" d="m427.8 101c-.2-.1-.5-.2-.7-.3h-.2v.9c0 .1.1.1.1.2.2 0 .4 0 .6-.1h.3c.1-.1.3-.2.4-.4-.1-.1-.3-.2-.5-.3v0z"/>
  <path class="st11" d="m440.2 119.1c.4.8.8 1.6 1.1 2.5 0-.2.1-.4 0-.5-.4-.8-.8-1.6-1.2-2.5.1.2 0 .4.1.5z"/>
  <path class="st11" d="m424.6 103c-.1-.4-.2-.8-.4-1.2 0-.1-.1-.3-.2-.4-.1.1-.4.1-.4.3-.1.4-.1.8-.2 1.2.1-.4.3-.8.4-1.1.3.4.6.8.8 1.2z"/>
  <path class="st11" d="m423.1 106c0 .2-.2.3-.3.5.3.4.5.3.6-.1.1-.6.3-1.2.4-1.8-.4.4-.7.8-.7 1.4z"/>
  <path class="st11" d="m438.6 115.8c-.6-1-1.6-1.3-2.7-1.4.1.1.2.2.3.2.9.4 1.7.8 2.4 1.2z"/>
  <path class="st11" d="m442.3 128.8c-.3-.2-.6-.4-.9-.5-.6-.1-.8-.3-.8-.9-.2.1-.3.3-.5.4.6.6 1.4.9 2.2 1z"/>
  <path class="st11" d="m429.2 101.8c-.4.1-.9.2-1.3.3-.2.1-.4.2-.6.4.9-.2 1.7-.4 2.6-.6-.2-.1-.4-.1-.7-.1z"/>
  <path class="st11" d="m422.3 128.3c-.5-.2-.9-.4-1.4-.6.4.3.8.6 1.2 1 0 .1-.1.3-.2.4.1-.1.3-.2.4-.3.3-.2.3-.4 0-.5z"/>
  <path class="st11" d="m421.3 115.9c-.7.7-1.2 1.4-1.2 2.4.1-.2.2-.4.3-.7.3-.6.6-1.2.9-1.7z"/>
  <path class="st11" d="m417.9 123c0 .3-.1.7 0 .9.1.5.4.9.6 1.3-.1-.6-.2-1.2-.3-1.7 0-.2-.2-.4-.3-.5z"/>
  <path class="st11" d="m425.2 107.4v-2.1c-.4.7-.4 1.4 0 2.1z"/>
  <path class="st11" d="m420.9 135.5c-.1-.6-.3-1.1-.4-1.7-.1.7 0 1.2.4 1.7z"/>
  <path class="st11" d="m436.2 112.8c.2-.7.5-1.3.7-2-.4.6-1 1.1-.7 2z"/>
  <path class="st11" d="m441.7 123.5v-1.2c0-.1-.1-.2-.1-.3h-.1v1.4c0 .1.1.1.2.1z"/>
  <path class="st11" d="m424 104.6h1-1z"/>
  <path class="st11" d="m424 104.6h1c-.4-.4-.7-.6-1 0z"/>
  <path class="st11" d="m420.5 133.4v-.9c-.3.3-.3.6 0 .9z"/>
  <path class="st11" d="m441.4 123.5c0 .2-.1.4-.1.7.1-.2.3-.4.4-.7h-.3z"/>
  <path class="st11" d="m426.7 99.9c-.1.1-.2.3-.2.4.2.1.4.1.6.2-.1-.2-.3-.4-.4-.6z"/>
  <path class="st11" d="m427.1 100.5c-.1-.2-.2-.4-.4-.6.1.2.3.4.4.6z"/>
  <path class="st11" d="m439.9 117.3c.1.3.2.6.3.8.1-.3.1-.6-.3-.8z"/>
  <path class="st11" d="m427.1 100.7v-.2c-.2-.1-.4-.1-.6-.2.1.1.2.3.4.4h.2z"/>
  <path class="st11" d="m427.1 100.5v.2-.2z"/>
  <path class="st11" d="m429.4 101v.5-.5z"/>
  <path class="st11" d="m429.5 101.4c0-.1-.1-.3-.1-.4v.5z"/>
  <path class="st11" d="m433.8 133.9c.2.1.5.1.7.2.3.1.7.2 1 .3-.6-.2-1.1-.4-1.7-.5-.3 0-.5-.1-.8-.1-.2 0-.4-.1-.7-.1.2 0 .4.1.7.1s.5.1.8.1z"/>
  <path class="st11" d="m674.1 122.8c0-.5 0-1-.1-1.5-.3-1.9-.8-3.8-1.5-5.6-.4-.7-.8-1.5-1.2-2.2-.1-.2-.2-.4-.3-.5s-.1-.2-.2-.4-.3-.3-.4-.5c-.5-.7-1-1.3-1.6-2l-.4-.4c-.4-.5-.9-1-1.3-1.5 0 0-.1 0-.1-.1-1.2-.9-1.2-1-.1-1.9.3-.3.6-.5.9-.8.1 0 .1-.1.2-.1l1.1-1.1s.1 0 .1-.1l2.3-2.3c.2-.3.5-.6.7-.9 0-.1.1-.2.1-.3 0-.8 0-1.5.1-2.3.1-1.1-.3-2-1-2.9-.6-.9-1.2-1.9-1.7-2.9-.4-.7-.6-1.5-.9-2.3-.4-.9-.8-1.8-1.2-2.8-.3-.9-.5-1.8-.7-2.7-.1-.7-.3-1.4-.8-2-.5-.4-1-.9-1.5-1.3-1.3-.9-2.6-1.8-3.8-2.7-.7-.3-1.1-.7-1.1-1.5 0-.4-.4-.8-.6-1.2-.7-.4-1.5-.8-2.3-1.2 1.2-.7 1.9-1.8 2.3-3.2.1-.5.2-1 .2-1.6s-.2-1.2-.2-1.8c-.1-.3-.1-.6-.2-.9-.3-.8-.7-1.6-1-2.4l-1.5-2.1c-.3-.2-.6-.4-.9-.7-.3-.2-.6-.5-1-.5-.9-.2-1.8-.3-2.7-.4h-1.7c-.1 0-.1 0-.2.1-.1 0-.2.1-.3.1-.3.1-.6.2-.9.3-.8.6-1.7 1.2-2.5 1.8-.6.9-1.1 1.7-1.7 2.6-.1.3-.2.5-.2.8v.5c.1.3.2.6.2.9.1.2.1.4.2.6s.4.4.4.7c0 .8-.1 1.7-.1 2.5 0 1.4 0 2.9 1 4.1 0 .1-.1.4-.3.5-.9.6-1.9 1.1-2.7 1.7-.3.2-.6.9-.5 1.2.4.8.2 1.3-.3 1.8-.1.1-.2.3-.3.5-.4.5-.7 1.1-1.1 1.6-.4.6-.8 1.1-1.2 1.7 0 .1-.1.2-.1.3-.6 1.1-1.2 2.1-1.8 3.2-.2.8-.3 1.5-.5 2.3s-.4 1.7-.6 2.5v4.1.5-.5.5c0 .1-.1.2-.1.3-.4.2-.8.3-1.2.5h-.1l-.3.3c-.7.4-1.3.9-2 1.1s-1.3.5-1.9 1.1c-.4.4-.9.8-1.6.7-.6-.1-1.2 0-1.8 0-1.6.1-2.9.7-3.7 2.1-.1.3-.1.5-.2.8s-.1.5-.2.8-.2.7-.3 1c0 .3-.1.6-.1.9v.2c-.1.3-.2.7-.3 1-.1.9-.2 1.8-.2 2.6 0 .6-.3.8-.7 1.1-.5.3-1 .7-1.2 1.2-.6 1.3-1 2.6-1.4 3.9-.2.6-.3 1.3-.5 2-.2.9-.5 1.8-.7 2.7s-.4 1.7-.5 2.6c-.2 1.1-.4 2.3-.7 3.4-.1.5-.2.9-.3 1.4v.3.5.7c.1.1.1.3.2.4.4.7.9 1.5 1.3 2.2.5.4.5 1.7 0 2v2.2c.1-.1.2-.3.4-.4.1-.1.3-.3.4-.5.1.4.2.7.3 1.1 0 .6.1 1.3.1 1.9l.6.3c.3.1.5 0 .7-.2.1-.1.1-.2.2-.3 0-.1.1-.3.1-.5 0-.6.1-1.3.1-1.9.1 0 .1-.1.2-.1l.3.6c.2-.3.4-.5.6-.8.2-.1.5-.2.4-.3 0-.3-.2-.6-.3-1 .5.1 1 .1 1.4.3.3.1.6.3.7.5.4.5.7 1.2 1.2 1.7 1 1.1 1.9 2.4 3 3.3 1.6 1.3 3.5 2.2 5.7 2.4 1.7.2 3.3-.1 4.8-.9 1.4-.7 2.5-1.7 3.5-2.9 1-1.4 2-2.8 2.5-4.4.3-.8.6-1.6.9-2.4 0-.1 0-.2.1-.3 0-.1.1-.2.1-.3.2-.5.3-1.1.5-1.6.1-1.1.3-2.2.4-3.2v-1.2c0-.2.2-.4.3-.6h.3c.2.7.3 1.5.5 2.2.8 3 2.3 5.6 4.2 8 .7.8 1.5 1.6 2.2 2.4l.3.3c.1 0 .1.1.2.1h.1c1 .5 2 1.1 3.1 1.6.4.2.7.3 1.1.5.1 0 .3.1.4.1.2 0 .3.1.5.1.1 0 .2.1.2.1h.1c1 0 2-.1 3-.1.2-.1.4-.1.6-.2.9-.3 1.7-.7 2.6-1.1.2-.1.4-.3.7-.4.1-.1.2-.2.4-.3.1-.1.3-.2.4-.3v-.1c.7-.8 1.5-1.5 2.2-2.3.1-.2.3-.3.4-.5 0-.1.1-.2.1-.2.5-.9 1-1.7 1.4-2.7.6-1.5 1.4-3 1.4-4.7.1-.2.1-.5.2-.7 0-.3.1-.7.1-1 0-.9.1-1.7.1-2.6.1-.4 0-1.1 0-1.8zm-55.5 7.4v1.1c-.2-.1-.4-.2-.5-.4-.1-.1-.1-.2-.1-.3v-.2-.6c.1-.3.2-.6.3-1 0-.2 0-.3.1-.5.1-.3.2-.6.3-.8.2-.1.4-.1.7-.2 0 .2.1.5 0 .6-.9.6-.8 1.5-.8 2.3zm3.1.3c-.1.1-.5.1-.7.1l-1.2.3c-.2 0-.4.1-.5 0-.2-.3 0-1.7.4-2.1.1.2.1.4.1.6.6.4.9.3 1.1-.3 0-.1.2-.2.4-.3.2.3.6 1.5.4 1.7zm.2-11.6c-.1.3-.1.5-.2.8s-.1.5-.2.8c0 .2-.1.4-.1.7-.1.5-.3 1-.2 1.5 0 .8-.4.9-1 .9h-.5c.2-2.5 1.1-4.7 1.7-7 0-.8.5-1.4 1-2.1.1.3.1.4.1.6-.1 1.1-.4 2.5-.6 3.8zm12.2 10.2.1.1c-.1.3-.2.6-.2.9-.1 0-.1 0-.2.1-.1-.2-.3-.5-.4-.7zm-3.4-12.7c.1 0 .3.2.4.3.3.2.3.4.2.7-.2.3-.3.6-.5.9s-.3.2-.4-.1v-.3zm.1 23.3-1.2-.4c0-.3.1-.5.1-.7v-.2l.3-1.2c0-.2 0-.3.1-.5 0-.5 0-1 .7-1h.3c.2-.1.4-.1.7-.2h.5c.5.1.3.4.2.6-.5 1.2-.9 2.3-1.4 3.5zm3.4 1.2-.6.3h-.2c-.2 0-.3-.1-.5-.1-.1-.2-.2-.4-.4-.6-.1.2-.3.3-.4.5-.1 0-.1 0-.2.1-.1 0-.1 0-.2.1h-.1c-.2-.1-.4-.3-.5-.4.3-.7.6-1.4.9-2.1l.3-.6h.2v.9c0 .3.1.5.5.5 0-1.1.1-2.2.1-3.2 0-.4.1-.8.6-.9.2 0 .4.5.6.7.1.1.1.3.1.5l.1.1v.6c-.1.7-.1 1.4-.2 2.1.3.4.4 1-.1 1.5zm3-8.6h-.2c-.2-.8-.5-1.6-.8-2.5 1.3.7 1.1 1.6 1 2.5zm0 6.7c-1.1 1-1.1 1-1.6-.4-.1-.2-.2-.4-.2-.7 0-.1-.1-.3-.1-.4-.1-.1-.1-.2-.2-.2 0-.1 0-.1-.1-.2v-5.2-1.6c.1 0 .1 0 .2-.1.7.6.9 1.5 1.2 2.3.3.9.6 1.7.9 2.6l.1.1s-.1 0-.1.1v1c0 .3.1.6.1.9s.1.6.1.9v.2c0 .3-.1.5-.3.7zm.6-5.7v-1.9c.8.9.8 1.1 0 1.9zm2.3-4.3c-.2.8-.4 1.6-.7 2.3 0 .1-.1.2-.3.4-.6-1-1.3-1.8-1.4-2.9 0-.5-.1-1.1-.2-1.6 0-.1 0-.3.1-.3.3-.2 1.3 0 1.5.3.3.3.5.7.8 1 .2.2.3.5.2.8zm1.9-6.8c-.2-.3-.4-.5-.5-.8 0 0 .3-.3.4-.3.2.1.4.3.7.5-.3.2-.4.4-.6.6zm1 11.5c-.4-.3-.4-.9 0-1.3.6.7.6.8 0 1.3zm1.5-5.6-.1.1c0 .4-.1.8-.1 1.2-.4.2-.8-.1-.8-.6s.1-.9.2-1.4c.1-.1.5-.2.7-.2.1 0 .2.3.2.5.1.2 0 .3-.1.4zm.2-5.8v0c-.1.2-.3.2-.5.3-.1-.3-.2-.5-.2-.8 0-.2.1-.3.2-.5.2.1.3.2.5.3v.3.4zm14.6 4.2c.7.2.7.8 0 2.2-.5-.8-.2-1.5 0-2.2zm-2.4-2.1h.3c.1 0 .2.1.3.1-.1.1-.1.2-.2.3-.3 0-.6 0-.9.1h-.9s0-.1-.1-.1v-.2-.1c.5 0 1-.1 1.5-.1zm-3.6.1c-.3.3-1.4.4-1.6.2-.3-.3-.2-.5.2-.5h.3.8c.1 0 .2.2.3.3zm-1.4-1.6c.3 0 .7.2 1 .3 0 .1 0 .1.1.2-.4.1-.8.2-1.2.2-.1 0-.2-.3-.3-.5 0-.1.2-.2.4-.2zm-2.3 1.2c-.1-.3-.1-.6-.2-.8 0-.3-.1-.6-.1-.9 0-.1.4-.2.4-.2.2.2.4.4.5.6 0 .5.1 1.1-.6 1.3zm1 5.1c.1-.8-.9-1.4-.2-2.4.7.6.6 1.3.8 2 0 .2-.2.4-.3.5-.1 0-.2-.1-.3-.1zm1.2 2c-.1 0-.3-.1-.4-.2-.2-.3-.3-.7-.4-1.1 0-.1.2-.2.3-.4.2.1.3.1.3.2.2.3.3.7.4 1.1.1.1-.1.3-.2.4zm.1-4.7c0-.1.2-.3.3-.4h3.9c.1.1.2.1.3.2-.1.1-.2.1-.3.2l-2.7 1.5c-.7.5-.9.4-1.1-.4v-.1-.1c0-.1-.1-.1-.1-.2-.2-.3-.3-.5-.3-.7zm3.6 1.2-2 2c-.1.1-.2.1-.3.2 0 0 0-.1-.1-.1 0-.1-.1-.1-.1-.2v-.2-.6c.7-.5 1.5-1 2.3-1.3l.2.2zm-2.3 5.6s0 .1-.1.1-.1 0-.2-.1c-.1 0-.1-.1-.2-.1-.2-.3-.5-.5-.6-.8-.1-.2 0-.5 0-.7.1 0 .2 0 .3-.1.3.5.6.9.8 1.4.1.1.1.2 0 .3zm1 1.5-.1.1c-.1-.1-.2-.2-.3-.4-.1-.1-.2-.2-.3-.4 0 0 .2-.2.4-.5.2.4.4.6.5.9 0 .2-.1.3-.2.3zm.1-3.2c-.7-.3-.9-.8-.5-1.2.6-.7 1.2-1.3 1.9-1.9 0 1.2-1 2-1.4 3.1zm1.9 5.5c-.6-.1-.9-.6-1.3-1-.1-.1.1-.3.2-.6.5.6.9 1 1.3 1.5-.1 0-.1 0-.2.1zm1.9-1.9c0 .3-.1.7-.1 1-.1.1-.2.1-.2.2l-.2-.2c-.2-.2-.2-.4 0-.7.1-.2.1-.4.2-.7s.3-.6.4-.8c.3.4.4.8-.1 1.2zm.3-3.6c-.1.4-.3.7-.4 1.1.1-.4.2-.8.4-1.1-.1.4-.3.7-.4 1.1-.3.7-.5 1.5-.8 2.2-.1.3-.3.3-.6.1-.8-.7-1.1-1.5-.8-2.5.2-.7.2-1.6.5-2.3.4-1.1 1-2.2 1.5-3.3h.3c.2.5.3 1 .5 1.6 0 .1.1.2.1.2.1.2.1.3.1.5.1.4 0 .8-.2 1.2-.2.3-.2.7-.2 1.2zm.2 4.3v-.2c0-.1.1-.3.1-.4.1-.1.1-.2.2-.4v-.6c0-.1-.1-.2-.1-.3s-.1-.2-.1-.2c0-.7 0-1.4.1-2.1 0-.2.2-.3.4-.5.1.1.2.2.2.4.1.3.1.7.2 1 0 .8.1 1.6.1 2.4.1.8.1 1.5.2 2.3l-.3.3c-.3-.2-.6-.4-.8-.6l-.1-.1c0-.4-.1-.7-.1-1zm1.2 3.4c-.4-.2-.7-.4-1.1-.6.1-.1.1-.2.2-.3.4.2.7.4 1.1.5-.1.2-.1.3-.2.4zm11.1-16.9v1.6h-2.9c-.1 0-.2-.1-.3-.1h-4c-.2 0-.5 0-.7-.1-.4-.2-.5-.3-.1-.8.7-.9 1.5-1.2 2.7-1.1 1.6.1 3.1 0 4.7 0 .4-.1.6 0 .6.5zm-9-1.2c.8-.2 1.5-.4 2.2-.6 0 .1 0 .1.1.2-.7.7-1.4.8-2.3.4zm8.5-2c.1.3.1.7.2 1v.9c-.2 0-.4.1-.6.1h-5c-.1 0-.1.1-.2.1v-.2c.3-.7.8-1 1.5-1.2.4-.1.8-.3 1.2-.4h.2c.4-.1.7-.2 1.1-.4.4-.1.7-.3 1.1-.3.2 0 .5.2.5.4zm-.7-2.4c0 .2.1.4.2.6.4.6.1.7-.4.8-.3.1-.6.2-.9.3-.1 0-.2 0-.3.1-.2.1-.3.1-.5.2-.1 0-.2.1-.3.1-.2.1-.4.1-.6.2l-.1-.1c.1-.2.3-.3.4-.5l1.8-1.8c.3-.3.6-.5.7.1zm-2.1-2.5c.3-.3.4-.3.6 0s.4.5.5.7c.2.3.3.6-.1 1-.1.1-.2.1-.2.2l-.7.7c-.1.1-.2.3-.4.4 0 0 0 .1-.1.1-.4.4-.7.8-1.1 1.2 0 0 0 .1-.1.1-.1.1-.2.2-.3.2-.1.1-.2.2-.2.3 0 0-.1 0-.1.1-.3.1-.6.3-.8.4-.1 0-.2.1-.4.1-.3.1-.6.2-.9.4h-.6c.6-.7 1.1-1.4 1.7-2 1.1-1.3 2.2-2.6 3.2-3.9zm-5.2 2c.1-.2.1-.4.1-.6 0-.1.1-.1.1-.1.2-.1.5 0 .7 0 .1 0 0 .3.1.5 0 0-.1 0-.1.1-.3.4-.6.9-.9 1.3-.1 0-.1 0-.2-.1.1-.4.1-.7.2-1.1zm0 2.5c.5-.9 1.1-1.8 1.7-2.7.4-.5 1-.5 1.5-.6l.1.1c-1.2 1.4-2.4 2.9-3.5 4.3-.1 0-.2-.1-.2-.1 0-.3.2-.7.4-1zm-1.1 5.6c.2.1.4.1.5.3.1.3.1.6.1.9-.1 0-.1 0-.2.1-.2-.2-.4-.4-.5-.7 0-.2.1-.4.1-.6zm-.1 1.6c.6.5.9 1.1 1.1 1.9-.6-.2-1.2-1.2-1.1-1.9zm.1 12v.1c-.1 0-.1 0-.2-.1-.2-.1-.4-.1-.5-.3-.1-.4-.1-.8-.1-1.2v-1.2h.1c0 .1.1.2.1.3l.3.9c.1.3.2.6.3 1v.5zm.6-.6c-.1-.2-.2-.5-.3-.7 0-.1 0-.2-.1-.3-.1-.3-.2-.7-.3-1-.1-.5-.2-.9-.3-1.4-.2-.4-.5-.8-.5-1.3-.1-.8 0-1.6 0-2.4v-2.6c.1 0 .2-.1.2-.1.3.4.6.7.8 1.1.5 1.1 1 2.3 1.4 3.4.1.2.1.5.2.7.2 1.1.3 2.3.5 3.4.1.8.2 1.5.4 2.2-1.4.3-1.9.2-2-1zm3.2 1.1c-.2 0-.5-.2-.5-.3-.1-.4-.2-.9-.3-1.4v-.9c-.5-.4-.4-.8-.1-1.3.2.4.3.7.5 1.1.2.6.4 1.1.5 1.7 0 .1.1.2.1.3s.1.2.1.3 0 .1.1.1v.1c0 .3-.2.3-.4.3zm2.2-1.5c-.2.3-.6.5-.9.7-.1 0-.4-.3-.5-.5-.4-.8-.7-1.6-1.1-2.4 0-.1-.1-.1-.1-.2 0 .1.1.1.1.2 0-.1-.1-.1-.1-.2v-.3c-.3-.7-.6-1.5-.9-2.2-.2-.6-.4-1.1-.6-1.7l.2-.2c.2.1.4.2.5.4.9 1.6 1.8 3.2 2.7 4.7.2.3.3.6.5 1 0 .3.2.6.2.7zm1-1.2c-.1.1-.2.3-.4.5-.2-.1-.4-.2-.4-.4-.7-1.2-1.3-2.3-1.9-3.5v-.4c.1.1.3.2.4.3l.4.4c.1.1.2.2.2.3l.8.8c.1.1.3.2.4.4.1.1.3.2.4.4.6.4.7.7.1 1.2zm1.6-2.8c-.1.3-.2.5-.3.8-.3.7-.5.7-1.1.2-.7-.7-1.4-1.3-2-2-1-.9-2.1-1.6-2.6-2.9-.1-.2-.3-.4-.4-.6s-.1-.3-.2-.5c-.1-.3-.3-.6-.4-.9v-.3c-.1-.7-.3-1.3-.4-2 .1-.1.2-.1.2-.2.4.3.8.7 1.2 1 .8.9 1.6 1.7 2.4 2.6.9 1 1.7 2 2.6 3 .3.4.7.8 1.1 1.2-.1.2-.1.4-.1.6zm.6-1.9v.2c-.1.2-.1.4-.2.6-.2-.1-.3-.2-.5-.3l-.1-.1c-.2-.3-.4-.5-.7-.8-.5-.6-1.1-1.2-1.6-1.8-.1-.1-.2-.2-.3-.2 0-.1-.1-.2-.1-.2-.3-.3-.7-.6-1-.9l.2-.2c.5.1.8.3 1.1.7.1 0 .1.1.2.1.1.1.3.2.4.4.9.5 1.7 1.1 2.6 1.6.6.1.4.5 0 .9zm.5-2.3v.3.2c-.1 0-.3.2-.4.1-.2-.1-.4-.3-.7-.5-1.6-1.1-3.2-2.1-4.8-3.2 0-.1.1-.1.1-.2.7.2 1.3.4 2 .7 1 .3 2 .7 3 1.1.4.2 1 .1 1.1.7-.1.2-.1.4-.2.5-.1.2-.1.3-.1.3zm-.7-2.1c-1.7-.6-3.5-1.3-5.2-1.9-.1 0-.3-.1-.4-.1.1-.1.2-.3.3-.3.5 0 1.1.1 1.6.1h.5 3.6c.6 0 .9.5.6.9-.4.4-.3.7 0 1 .1.1.1.2.1.4-.5.1-.8 0-1.1-.1z"/>
  <path class="st0" d="m29.1 191.2h3.1l7.2 21.4h-2.9l-3.7-12c-.8-2.4-1.5-4.7-2.1-7.2h-.1c-.7 2.5-1.3 4.8-2.1 7.2l-3.8 12h-2.8zm-3.5 12.7h9.9v2.2h-9.9z"/>
  <path class="st0" d="m41.9 206.8v-10h2.7v9.7c0 3 .9 4.2 3 4.2 1.6 0 2.7-.8 4.2-2.7v-11.2h2.7v15.9h-2.2l-.2-2.5h-.1c-1.5 1.7-3.1 2.9-5.2 2.9-3.4-.1-4.9-2.2-4.9-6.3z"/>
  <path class="st0" d="m58.2 210.8 1.3-1.8c1.4 1.1 2.8 1.9 4.7 1.9 2.1 0 3.1-1.1 3.1-2.5 0-1.6-1.9-2.4-3.6-3-2.2-.8-4.7-1.9-4.7-4.6 0-2.5 2-4.5 5.5-4.5 2 0 3.7.8 4.9 1.8l-1.3 1.7c-1.1-.8-2.2-1.4-3.6-1.4-2 0-2.9 1.1-2.9 2.3 0 1.5 1.7 2.1 3.5 2.8 2.3.9 4.8 1.8 4.8 4.8 0 2.6-2 4.7-5.8 4.7-2.2 0-4.4-.9-5.9-2.2z"/>
  <path class="st0" d="m73.6 207.7v-8.7h-2.4v-2l2.5-.2.3-4.4h2.2v4.4h4.3v2.2h-4.3v8.8c0 1.9.6 3.1 2.5 3.1.6 0 1.3-.2 1.8-.4l.5 2c-.9.3-2 .6-2.9.6-3.4-.1-4.5-2.2-4.5-5.4z"/>
  <path class="st0" d="m84.3 196.8h2.2l.2 2.9h.1c1.1-2 2.7-3.3 4.5-3.3.7 0 1.2.1 1.7.3l-.5 2.4c-.5-.2-.9-.3-1.5-.3-1.3 0-2.9 1-4 3.6v10.2h-2.7z"/>
  <path class="st0" d="m93.9 208.5c0-3.5 3-5.2 9.7-5.9 0-2-.7-4-3.3-4-1.8 0-3.5.9-4.7 1.7l-1-1.8c1.5-1 3.7-2.1 6.2-2.1 3.9 0 5.5 2.6 5.5 6.5v9.7h-2.2l-.2-1.9h-.1c-1.5 1.3-3.3 2.3-5.2 2.3-2.7 0-4.7-1.6-4.7-4.5zm9.8.3v-4.4c-5.3.6-7.1 1.9-7.1 4 0 1.8 1.2 2.5 2.8 2.5 1.5 0 2.8-.8 4.3-2.1z"/>
  <path class="st0" d="m111.5 209.5v-20.1h2.7v20.3c0 .8.4 1.1.7 1.1.2 0 .3 0 .6-.1l.4 2c-.4.1-.8.3-1.5.3-2.1 0-2.9-1.3-2.9-3.5z"/>
  <path class="st0" d="m119 208.5c0-3.5 3-5.2 9.7-5.9 0-2-.7-4-3.3-4-1.8 0-3.5.9-4.7 1.7l-1-1.8c1.5-1 3.7-2.1 6.2-2.1 3.9 0 5.5 2.6 5.5 6.5v9.7h-2.2l-.2-1.9h-.1c-1.5 1.3-3.3 2.3-5.2 2.3-2.7 0-4.7-1.6-4.7-4.5zm9.7.3v-4.4c-5.3.6-7.1 1.9-7.1 4 0 1.8 1.2 2.5 2.8 2.5 1.5 0 2.8-.8 4.3-2.1z"/>
  <path class="st0" d="m134.8 210.8 1.3-1.8c1.4 1.1 2.8 1.9 4.7 1.9 2.1 0 3.1-1.1 3.1-2.5 0-1.6-1.9-2.4-3.6-3-2.2-.8-4.7-1.9-4.7-4.6 0-2.5 2-4.5 5.5-4.5 2 0 3.7.8 4.9 1.8l-1.3 1.7c-1.1-.8-2.2-1.4-3.6-1.4-2 0-2.9 1.1-2.9 2.3 0 1.5 1.7 2.1 3.5 2.8 2.3.9 4.8 1.8 4.8 4.8 0 2.6-2 4.7-5.8 4.7-2.3 0-4.5-.9-5.9-2.2z"/>
  <path class="st0" d="m149.8 191.8c0-1.1.8-1.7 1.9-1.7s1.9.7 1.9 1.7-.8 1.7-1.9 1.7-1.9-.7-1.9-1.7zm.5 5h2.7v15.9h-2.7z"/>
  <path class="st0" d="m157.5 208.5c0-3.5 3-5.2 9.7-5.9 0-2-.7-4-3.3-4-1.8 0-3.5.9-4.7 1.7l-1-1.8c1.5-1 3.7-2.1 6.2-2.1 3.9 0 5.5 2.6 5.5 6.5v9.7h-2.2l-.2-1.9h-.1c-1.5 1.3-3.3 2.3-5.2 2.3-2.7 0-4.7-1.6-4.7-4.5zm9.7.3v-4.4c-5.3.6-7.1 1.9-7.1 4 0 1.8 1.2 2.5 2.8 2.5 1.5 0 2.8-.8 4.3-2.1z"/>
  <path class="st0" d="m175 196.8h2.2l.2 2.3h.1c1.5-1.5 3.1-2.7 5.3-2.7 3.3 0 4.8 2.2 4.8 6.2v10h-2.6v-9.7c0-3-.9-4.2-3-4.2-1.6 0-2.7.8-4.3 2.4v11.5h-2.7z"/>
  <path class="st0" d="m198.4 209.9 1.6-1.9c1.5 1.6 3.7 2.7 5.9 2.7 2.8 0 4.5-1.4 4.5-3.5 0-2.2-1.6-2.9-3.6-3.8l-3.1-1.4c-2-.9-4.3-2.4-4.3-5.5 0-3.3 2.9-5.7 6.7-5.7 2.5 0 4.8 1.1 6.3 2.7l-1.4 1.8c-1.3-1.2-2.9-2-4.9-2-2.4 0-4 1.2-4 3.1 0 2.1 1.9 2.8 3.5 3.5l3.1 1.3c2.5 1.1 4.4 2.5 4.4 5.7 0 3.4-2.8 6.1-7.3 6.1-3 0-5.6-1.2-7.4-3.1z"/>
  <path class="st0" d="m216 204.7c0-5.3 3.5-8.3 7.3-8.3 3.9 0 7.3 3 7.3 8.3 0 5.2-3.5 8.3-7.3 8.3s-7.3-3-7.3-8.3zm12 0c0-3.6-1.8-6.1-4.6-6.1-2.7 0-4.6 2.5-4.6 6.1s1.8 6.1 4.6 6.1c2.7 0 4.6-2.4 4.6-6.1z"/>
  <path class="st0" d="m233.8 204.7c0-5.3 3.6-8.3 7.6-8.3 2.1 0 3.5.9 4.6 1.9l-1.4 1.8c-.9-.8-1.9-1.4-3.1-1.4-2.9 0-5 2.5-5 6.1s2 6.1 4.9 6.1c1.4 0 2.7-.7 3.7-1.6l1.2 1.8c-1.4 1.3-3.2 2-5.1 2-4.1-.1-7.4-3.1-7.4-8.4z"/>
  <path class="st0" d="m249.5 191.8c0-1.1.8-1.7 1.9-1.7s1.9.7 1.9 1.7-.8 1.7-1.9 1.7-1.9-.7-1.9-1.7zm.5 5h2.7v15.9h-2.7z"/>
  <path class="st0" d="m257 204.7c0-5.2 3.5-8.3 7.1-8.3 4 0 6.3 2.9 6.3 7.4 0 .6 0 1.1-.1 1.5h-10.7c.2 3.4 2.2 5.5 5.3 5.5 1.5 0 2.8-.5 3.9-1.3l1 1.8c-1.4.9-3.1 1.6-5.2 1.6-4.2.1-7.6-3-7.6-8.2zm11.1-1.3c0-3.2-1.4-4.9-3.9-4.9-2.2 0-4.2 1.8-4.5 4.9z"/>
  <path class="st0" d="m274.6 207.7v-8.7h-2.4v-2l2.5-.2.3-4.4h2.2v4.4h4.3v2.2h-4.3v8.8c0 1.9.6 3.1 2.5 3.1.6 0 1.3-.2 1.8-.4l.5 2c-.9.3-2 .6-2.9.6-3.3-.1-4.5-2.2-4.5-5.4z"/>
  <path class="st0" d="m283.7 219.1.5-2.1c.3.1.8.2 1.2.2 1.8 0 2.9-1.4 3.6-3.4l.4-1.2-6.4-15.9h2.8l3.2 8.8c.5 1.4 1 3 1.5 4.5h.1c.4-1.4.9-3.1 1.3-4.5l2.8-8.8h2.6l-6 17.2c-1.1 3.1-2.8 5.5-5.9 5.5-.6.1-1.2-.1-1.7-.3z"/>
  <path class="st0" d="m305.6 196.9 2.3-.2h5.9v2.2h-8.2zm2.2-2.6c0-3.2 1.5-5.3 4.6-5.3 1 0 1.9.2 2.6.5l-.6 2c-.6-.3-1.2-.4-1.8-.4-1.5 0-2.2 1-2.2 3.1v18.4h-2.7v-18.3z"/>
  <path class="st0" d="m315.5 204.7c0-5.3 3.5-8.3 7.3-8.3s7.3 3 7.3 8.3c0 5.2-3.5 8.3-7.3 8.3s-7.3-3-7.3-8.3zm11.9 0c0-3.6-1.8-6.1-4.6-6.1-2.7 0-4.6 2.5-4.6 6.1s1.8 6.1 4.6 6.1c2.7 0 4.6-2.4 4.6-6.1z"/>
  <path class="st0" d="m334.5 196.8h2.2l.2 2.9h.1c1.1-2 2.7-3.3 4.5-3.3.7 0 1.2.1 1.7.3l-.5 2.4c-.5-.2-.9-.3-1.5-.3-1.3 0-2.9 1-4 3.6v10.2h-2.7z"/>
  <path class="st0" d="m352.8 191.2h5.4c6.6 0 10.1 3.8 10.1 10.6s-3.5 10.8-10 10.8h-5.5zm5.2 19.2c5 0 7.5-3.1 7.5-8.5s-2.5-8.4-7.5-8.4h-2.4v16.9z"/>
  <path class="st0" d="m371.6 204.7c0-5.2 3.5-8.3 7.1-8.3 4 0 6.3 2.9 6.3 7.4 0 .6 0 1.1-.1 1.5h-10.7c.2 3.4 2.2 5.5 5.3 5.5 1.5 0 2.8-.5 3.9-1.3l1 1.8c-1.4.9-3.1 1.6-5.2 1.6-4.3.1-7.6-3-7.6-8.2zm11.1-1.3c0-3.2-1.4-4.9-3.9-4.9-2.2 0-4.2 1.8-4.5 4.9z"/>
  <path class="st0" d="m386.9 196.8h2.8l3 9c.5 1.5 1 3.2 1.5 4.7h.1c.5-1.5 1-3.1 1.5-4.7l3-9h2.6l-5.6 15.9h-3.1z"/>
  <path class="st0" d="m403.3 204.7c0-5.2 3.5-8.3 7.1-8.3 4 0 6.3 2.9 6.3 7.4 0 .6 0 1.1-.1 1.5h-10.7c.2 3.4 2.2 5.5 5.3 5.5 1.5 0 2.8-.5 3.9-1.3l1 1.8c-1.4.9-3.1 1.6-5.2 1.6-4.3.1-7.6-3-7.6-8.2zm11.1-1.3c0-3.2-1.4-4.9-3.9-4.9-2.2 0-4.2 1.8-4.5 4.9z"/>
  <path class="st0" d="m420.8 209.5v-20.1h2.7v20.3c0 .8.4 1.1.7 1.1.2 0 .3 0 .6-.1l.4 2c-.4.1-.8.3-1.5.3-2.1 0-2.9-1.3-2.9-3.5z"/>
  <path class="st0" d="m428 204.7c0-5.3 3.5-8.3 7.3-8.3 3.9 0 7.3 3 7.3 8.3 0 5.2-3.5 8.3-7.3 8.3s-7.3-3-7.3-8.3zm12 0c0-3.6-1.8-6.1-4.6-6.1s-4.6 2.5-4.6 6.1 1.8 6.1 4.6 6.1 4.6-2.4 4.6-6.1z"/>
  <path class="st0" d="m447 196.8h2.2l.2 1.8h.1c1.4-1.2 3.2-2.2 5.1-2.2 4.1 0 6.3 3.2 6.3 8.1 0 5.4-3.2 8.6-6.9 8.6-1.5 0-2.9-.7-4.4-1.8l.1 2.8v5.4h-2.7zm11.1 7.7c0-3.5-1.2-5.8-4.2-5.8-1.3 0-2.7.7-4.2 2.2v8.3c1.4 1.2 2.8 1.6 3.9 1.6 2.6 0 4.5-2.4 4.5-6.3z"/>
  <path class="st0" d="m465.2 196.8h2.2l.2 2.3h.1c1.4-1.5 3-2.7 4.9-2.7 2.4 0 3.7 1.2 4.4 3 1.6-1.8 3.3-3 5.2-3 3.3 0 4.8 2.2 4.8 6.2v10h-2.7v-9.7c0-3-.9-4.2-3-4.2-1.2 0-2.5.8-4 2.4v11.5h-2.7v-9.7c0-3-.9-4.2-3-4.2-1.2 0-2.5.8-4 2.4v11.5h-2.7v-15.8z"/>
  <path class="st0" d="m491.2 204.7c0-5.2 3.5-8.3 7.1-8.3 4 0 6.3 2.9 6.3 7.4 0 .6 0 1.1-.1 1.5h-10.7c.2 3.4 2.2 5.5 5.3 5.5 1.5 0 2.8-.5 3.9-1.3l1 1.8c-1.4.9-3.1 1.6-5.2 1.6-4.2.1-7.6-3-7.6-8.2zm11.1-1.3c0-3.2-1.4-4.9-3.9-4.9-2.2 0-4.2 1.8-4.5 4.9z"/>
  <path class="st0" d="m508.7 196.8h2.2l.2 2.3h.1c1.5-1.5 3.1-2.7 5.3-2.7 3.3 0 4.8 2.2 4.8 6.2v10h-2.7v-9.7c0-3-.9-4.2-3-4.2-1.6 0-2.7.8-4.3 2.4v11.5h-2.7v-15.8z"/>
  <path class="st0" d="m527.2 207.7v-8.7h-2.4v-2l2.5-.2.3-4.4h2.2v4.4h4.3v2.2h-4.3v8.8c0 1.9.6 3.1 2.5 3.1.6 0 1.3-.2 1.8-.4l.5 2c-.9.3-2 .6-2.9.6-3.4-.1-4.5-2.2-4.5-5.4z"/>
  <path class="st0" d="m536.2 208.5c0-3.5 3-5.2 9.7-5.9 0-2-.7-4-3.3-4-1.8 0-3.5.9-4.7 1.7l-1.1-1.8c1.5-1 3.7-2.1 6.2-2.1 3.9 0 5.5 2.6 5.5 6.5v9.7h-2.2l-.2-1.9h-.1c-1.5 1.3-3.3 2.3-5.2 2.3-2.6 0-4.6-1.6-4.6-4.5zm9.7.3v-4.4c-5.3.6-7.1 1.9-7.1 4 0 1.8 1.2 2.5 2.8 2.5 1.5 0 2.8-.8 4.3-2.1z"/>
  <path class="st0" d="m553.7 209.5v-20.1h2.7v20.3c0 .8.4 1.1.7 1.1.2 0 .3 0 .6-.1l.4 2c-.4.1-.8.3-1.5.3-2 0-2.9-1.3-2.9-3.5z"/>
  <path class="st0" d="m569.1 191.2h6.1c4.8 0 8 1.6 8 6.3 0 4.5-3.2 6.6-7.9 6.6h-3.5v8.5h-2.7zm5.9 10.7c3.7 0 5.5-1.4 5.5-4.4 0-3.1-1.9-4.1-5.7-4.1h-3v8.5z"/>
  <path class="st0" d="m585 208.5c0-3.5 3-5.2 9.7-5.9 0-2-.7-4-3.3-4-1.8 0-3.5.9-4.7 1.7l-1.1-1.8c1.5-1 3.7-2.1 6.2-2.1 3.9 0 5.5 2.6 5.5 6.5v9.7h-2.2l-.2-1.9h-.1c-1.5 1.3-3.3 2.3-5.2 2.3-2.6 0-4.6-1.6-4.6-4.5zm9.8.3v-4.4c-5.3.6-7.1 1.9-7.1 4 0 1.8 1.2 2.5 2.8 2.5 1.5 0 2.7-.8 4.3-2.1z"/>
  <path class="st0" d="m601.4 204.7c0-5.2 3.5-8.3 7.1-8.3 4 0 6.3 2.9 6.3 7.4 0 .6 0 1.1-.1 1.5h-10.7c.2 3.4 2.2 5.5 5.3 5.5 1.5 0 2.8-.5 3.9-1.3l1 1.8c-1.4.9-3.1 1.6-5.2 1.6-4.2.1-7.6-3-7.6-8.2zm11.1-1.3c0-3.2-1.4-4.9-3.9-4.9-2.2 0-4.2 1.8-4.5 4.9z"/>
  <path class="st0" d="m617.8 204.7c0-5.1 3.2-8.3 6.9-8.3 1.8 0 3.1.7 4.4 1.8l-.1-2.7v-6.1h2.7v23.2h-2.2l-.2-1.9h-.1c-1.2 1.2-2.9 2.3-4.8 2.3-4.1 0-6.6-3-6.6-8.3zm11.2 3.9v-8.3c-1.4-1.2-2.6-1.6-3.9-1.6-2.5 0-4.6 2.4-4.6 6.1 0 3.8 1.6 6.1 4.4 6.1 1.5-.1 2.7-.8 4.1-2.3z"/>
  <path class="st0" d="m636.6 191.8c0-1.1.8-1.7 1.9-1.7 1 0 1.9.7 1.9 1.7s-.8 1.7-1.9 1.7-1.9-.7-1.9-1.7zm.5 5h2.7v15.9h-2.7z"/>
  <path class="st0" d="m644.3 208.5c0-3.5 3-5.2 9.7-5.9 0-2-.7-4-3.3-4-1.8 0-3.5.9-4.7 1.7l-1.1-1.8c1.5-1 3.7-2.1 6.2-2.1 3.9 0 5.5 2.6 5.5 6.5v9.7h-2.2l-.2-1.9h-.1c-1.5 1.3-3.3 2.3-5.2 2.3-2.6 0-4.6-1.6-4.6-4.5zm9.7.3v-4.4c-5.3.6-7.1 1.9-7.1 4 0 1.8 1.2 2.5 2.8 2.5 1.5 0 2.8-.8 4.3-2.1z"/>
  <path class="st0" d="m661.9 207.7v-8.7h-2.4v-2l2.5-.2.3-4.4h2.2v4.4h4.3v2.2h-4.3v8.8c0 1.9.6 3.1 2.5 3.1.6 0 1.3-.2 1.8-.4l.5 2c-.9.3-2 .6-2.9.6-3.4-.1-4.5-2.2-4.5-5.4z"/>
  <path class="st0" d="m672.6 196.8h2.2l.2 2.9h.1c1.1-2 2.7-3.3 4.5-3.3.7 0 1.2.1 1.7.3l-.5 2.4c-.5-.2-.9-.3-1.5-.3-1.3 0-2.9 1-4 3.6v10.2h-2.7z"/>
  <path class="st0" d="m683.5 191.8c0-1.1.8-1.7 1.9-1.7 1 0 1.9.7 1.9 1.7s-.8 1.7-1.9 1.7-1.9-.7-1.9-1.7zm.5 5h2.7v15.9h-2.7z"/>
  <path class="st0" d="m691 204.7c0-5.3 3.6-8.3 7.6-8.3 2.1 0 3.5.9 4.6 1.9l-1.4 1.8c-.9-.8-1.9-1.4-3.1-1.4-2.9 0-5 2.5-5 6.1s2 6.1 4.9 6.1c1.5 0 2.7-.7 3.7-1.6l1.2 1.8c-1.4 1.3-3.2 2-5.1 2-4.2-.1-7.4-3.1-7.4-8.4z"/>
  <path class="st0" d="m705.4 210.8 1.3-1.8c1.4 1.1 2.8 1.9 4.7 1.9 2.1 0 3.1-1.1 3.1-2.5 0-1.6-1.9-2.4-3.6-3-2.2-.8-4.7-1.9-4.7-4.6 0-2.5 2-4.5 5.5-4.5 2 0 3.7.8 4.9 1.8l-1.3 1.7c-1.1-.8-2.2-1.4-3.6-1.4-2 0-2.9 1.1-2.9 2.3 0 1.5 1.7 2.1 3.5 2.8 2.3.9 4.8 1.8 4.8 4.8 0 2.6-2 4.7-5.8 4.7-2.2 0-4.4-.9-5.9-2.2z"/>
  <path class="st0" d="m62.5 26h16.8l39.6 117.1h-15.8l-20.4-65.4c-4.2-13.1-8-25.9-11.7-39.5h-.7c-3.6 13.6-7.4 26.4-11.6 39.5l-20.7 65.4h-15.1zm-18.8 69.5h53.9v11.9h-53.9z"/>
  <path class="st0" d="m128.5 127.9 8.9-10.2c8.4 8.7 20.1 14.5 32.3 14.5 15.4 0 24.5-7.7 24.5-19 0-12-8.5-15.8-19.5-20.6l-16.8-7.4c-10.9-4.7-23.7-12.9-23.7-30.2 0-17.9 15.6-31.1 36.9-31.1 13.9 0 26.3 6 34.5 14.5l-7.9 9.6c-7.2-6.8-15.8-11-26.6-11-13.1 0-21.8 6.6-21.8 17.1 0 11.3 10.2 15.5 19.4 19.4l16.7 7.2c13.6 5.8 24.1 13.9 24.1 31.3 0 18.5-15.3 33.3-39.9 33.3-16.6 0-30.8-6.8-41.1-17.4z"/>
  <path class="st0" d="m225.8 26h29.3c36 0 55.3 20.9 55.3 58.1s-19.3 59-54.7 59h-30v-117.1zm28.2 104.9c27.4 0 41-17.2 41-46.8s-13.7-45.9-41-45.9h-13.3v92.7z"/>
  <path class="st0" d="m328.1 26h33.4c26.2 0 43.9 8.8 43.9 34.5 0 24.6-17.6 36.2-43.2 36.2h-19.2v46.5h-14.9zm32.3 58.6c20.5 0 30.2-7.4 30.2-24.1 0-16.9-10.4-22.4-31-22.4h-16.6v46.5z"/>
 </g>
</svg>
